<svg xmlns="http://www.w3.org/2000/svg" version="1.1" xmlns:xlink="http://www.w3.org/1999/xlink" xmlns:svgjs="http://svgjs.dev/svgjs" width="1000" height="166" viewBox="0 0 1000 166"><g transform="matrix(1,0,0,1,-0.6060606060606233,0.5166274282665739)"><svg viewBox="0 0 396 66" data-background-color="#ffffff" preserveAspectRatio="xMidYMid meet" height="166" width="1000" xmlns="http://www.w3.org/2000/svg" xmlns:xlink="http://www.w3.org/1999/xlink"><g id="tight-bounds" transform="matrix(1,0,0,1,0.2400000000000091,-0.20540608593731235)"><svg viewBox="0 0 395.52 66.41081217187461" height="66.41081217187461" width="395.52"><g><svg viewBox="0 0 485.3972260368817 81.50188108587257" height="66.41081217187461" width="395.52"><g transform="matrix(1,0,0,1,89.87722603688167,23.012278097348634)"><svg viewBox="0 0 395.52000000000004 35.4773248911753" height="35.4773248911753" width="395.52000000000004"><g id="textblocktransform"><svg viewBox="0 0 395.52000000000004 35.4773248911753" height="35.4773248911753" width="395.52000000000004" id="textblock"><g><svg viewBox="0 0 395.52000000000004 35.4773248911753" height="35.4773248911753" width="395.52000000000004"><g transform="matrix(1,0,0,1,0,0)"><svg width="395.52000000000004" viewBox="2.9000000953674316 -33.5 379.02001953125 34" height="35.4773248911753" data-palette-color="#085f63"><path d="M29.4-8.8L30.8-8.3Q29.95-5.55 28.1-3.55 26.25-1.55 23.63-0.53 21 0.5 17.7 0.5L17.7 0.5Q13.25 0.5 9.93-1.58 6.6-3.65 4.75-7.45 2.9-11.25 2.9-16.5L2.9-16.5Q2.9-21.75 4.75-25.55 6.6-29.35 9.93-31.43 13.25-33.5 17.65-33.5L17.65-33.5Q21.1-33.5 23.65-32.55 26.2-31.6 27.9-29.7 29.6-27.8 30.45-25L30.45-25 29.1-24.35Q27.9-28.3 25.1-30.28 22.3-32.25 17.7-32.25L17.7-32.25Q13.7-32.25 10.7-30.33 7.7-28.4 6.03-24.88 4.35-21.35 4.35-16.5L4.35-16.5Q4.35-11.65 6.03-8.13 7.7-4.6 10.7-2.68 13.7-0.75 17.7-0.75L17.7-0.75Q22.15-0.75 25.23-2.88 28.3-5 29.4-8.8L29.4-8.8ZM39.25-33L39.25-1.25 59.7-1.25 59.7 0 37.85 0 37.85-33 39.25-33ZM78.45-33.5L78.45-33.5Q83.1-33.5 86.5-31.43 89.9-29.35 91.72-25.55 93.55-21.75 93.55-16.5L93.55-16.5Q93.55-11.25 91.72-7.45 89.9-3.65 86.5-1.58 83.1 0.5 78.45 0.5L78.45 0.5Q73.85 0.5 70.45-1.58 67.05-3.65 65.2-7.45 63.35-11.25 63.35-16.5L63.35-16.5Q63.35-21.75 65.2-25.55 67.05-29.35 70.45-31.43 73.85-33.5 78.45-33.5ZM78.45-32.25L78.45-32.25Q74.3-32.25 71.22-30.33 68.15-28.4 66.47-24.88 64.8-21.35 64.8-16.5L64.8-16.5Q64.8-11.65 66.47-8.13 68.15-4.6 71.22-2.68 74.3-0.75 78.45-0.75L78.45-0.75Q82.7-0.75 85.72-2.68 88.75-4.6 90.42-8.13 92.1-11.65 92.1-16.5L92.1-16.5Q92.1-21.35 90.42-24.88 88.75-28.4 85.72-30.33 82.7-32.25 78.45-32.25ZM124.39-33L125.79-33 125.79-11.85Q125.79-5.85 122.49-2.68 119.19 0.5 113.24 0.5L113.24 0.5Q107.34 0.5 104.02-2.68 100.69-5.85 100.69-11.85L100.69-11.85 100.69-33 102.09-33 102.09-12.05Q102.09-6.6 105.02-3.68 107.94-0.75 113.24-0.75L113.24-0.75Q118.59-0.75 121.49-3.68 124.39-6.6 124.39-12.05L124.39-12.05 124.39-33ZM135.09-33L145.34-33Q153.29-33 157.47-28.9 161.64-24.8 161.64-16.9L161.64-16.9Q161.64-8.65 157.47-4.33 153.29 0 145.34 0L145.34 0 135.09 0 135.09-33ZM136.49-1.25L145.39-1.25Q152.64-1.25 156.42-5.28 160.19-9.3 160.19-16.9L160.19-16.9Q160.19-24.15 156.42-27.95 152.64-31.75 145.39-31.75L145.39-31.75 136.49-31.75 136.49-1.25ZM166.74 0L165.29 0 178.74-33 180.34-33 193.79 0 192.34 0 180.54-28.85 179.54-31.55 179.54-31.55 178.54-28.9 166.74 0ZM188.24-11.2L170.74-11.2 170.74-12.5 188.24-12.5 188.24-11.2ZM199.59-33L211.64-33Q216.54-33 219.36-30.58 222.19-28.15 222.19-23.9L222.19-23.9Q222.19-19.65 219.34-17.23 216.49-14.8 211.64-14.8L211.64-14.8 211.44-14.75 200.99-14.75 200.99 0 199.59 0 199.59-33ZM200.99-16.05L211.64-16.05Q215.99-16.05 218.39-18.1 220.79-20.15 220.79-23.9L220.79-23.9Q220.79-27.6 218.39-29.68 215.99-31.75 211.64-31.75L211.64-31.75 200.99-31.75 200.99-16.05ZM212.14-15.05L213.29-15.9 223.74 0 222.14 0 212.14-15.05ZM254.98-8.8L256.38-8.3Q255.53-5.55 253.68-3.55 251.83-1.55 249.21-0.53 246.58 0.5 243.28 0.5L243.28 0.5Q238.83 0.5 235.51-1.58 232.18-3.65 230.33-7.45 228.48-11.25 228.48-16.5L228.48-16.5Q228.48-21.75 230.33-25.55 232.18-29.35 235.51-31.43 238.83-33.5 243.23-33.5L243.23-33.5Q246.68-33.5 249.23-32.55 251.78-31.6 253.48-29.7 255.18-27.8 256.03-25L256.03-25 254.68-24.35Q253.48-28.3 250.68-30.28 247.88-32.25 243.28-32.25L243.28-32.25Q239.28-32.25 236.28-30.33 233.28-28.4 231.61-24.88 229.93-21.35 229.93-16.5L229.93-16.5Q229.93-11.65 231.61-8.13 233.28-4.6 236.28-2.68 239.28-0.75 243.28-0.75L243.28-0.75Q247.73-0.75 250.81-2.88 253.88-5 254.98-8.8L254.98-8.8ZM287.08-33L288.48-33 288.48 0 287.08 0 287.08-33ZM263.43-33L264.83-33 264.83 0 263.43 0 263.43-33ZM264.13-17.45L287.83-17.45 287.83-16.2 264.13-16.2 264.13-17.45ZM321.48 0L298.58 0 298.58-33 320.68-33 320.68-31.75 299.98-31.75 299.98-17.45 316.48-17.45 316.48-16.2 299.98-16.2 299.98-1.25 321.48-1.25 321.48 0ZM328.23-33L340.28-33Q345.18-33 348-30.58 350.82-28.15 350.82-23.9L350.82-23.9Q350.82-19.65 347.98-17.23 345.13-14.8 340.28-14.8L340.28-14.8 340.07-14.75 329.63-14.75 329.63 0 328.23 0 328.23-33ZM329.63-16.05L340.28-16.05Q344.63-16.05 347.03-18.1 349.43-20.15 349.43-23.9L349.43-23.9Q349.43-27.6 347.03-29.68 344.63-31.75 340.28-31.75L340.28-31.75 329.63-31.75 329.63-16.05ZM340.78-15.05L341.93-15.9 352.38 0 350.78 0 340.78-15.05ZM369.22-33.5L369.22-33.5Q373.82-33.5 376.95-31.68 380.07-29.85 381.37-25.95L381.37-25.95 380.22-25.1Q379.07-28.8 376.25-30.53 373.42-32.25 369.12-32.25L369.12-32.25Q365.97-32.25 363.67-31.2 361.37-30.15 360.12-28.43 358.87-26.7 358.87-24.55L358.87-24.55Q358.87-21.85 360.67-20.18 362.47-18.5 366.97-17.55L366.97-17.55 372.97-16.3Q377.87-15.25 379.9-13.4 381.92-11.55 381.92-8.5L381.92-8.5Q381.92-5.8 380.4-3.78 378.87-1.75 376.17-0.63 373.47 0.5 369.82 0.5L369.82 0.5Q366.37 0.5 363.57-0.45 360.77-1.4 358.9-3.3 357.02-5.2 356.32-8L356.32-8 357.62-8.9Q358.12-6.15 359.85-4.35 361.57-2.55 364.15-1.65 366.72-0.75 369.87-0.75L369.87-0.75Q372.87-0.75 375.27-1.63 377.67-2.5 379.1-4.23 380.52-5.95 380.52-8.4L380.52-8.4Q380.52-10.85 378.72-12.45 376.92-14.05 372.57-14.9L372.57-14.9 366.47-16.25Q363.22-16.95 361.25-18.05 359.27-19.15 358.35-20.73 357.42-22.3 357.42-24.45L357.42-24.45Q357.42-26.85 358.85-28.9 360.27-30.95 362.9-32.23 365.52-33.5 369.22-33.5Z" opacity="1" transform="matrix(1,0,0,1,0,0)" fill="#085f63" class="wordmark-text-0" data-fill-palette-color="primary" id="text-0"></path></svg></g></svg></g></svg></g></svg></g><g><svg viewBox="0 0 81.50188108587257 81.50188108587257" height="81.50188108587257" width="81.50188108587257"><g><svg></svg></g><g id="icon-0"><svg viewBox="0 0 81.50188108587257 81.50188108587257" height="81.50188108587257" width="81.50188108587257"><g><rect width="74.10634002437672" height="74.10634002437672" x="3.697770530747924" y="3.697770530747924" fill="#49beb7" data-fill-palette-color="accent"></rect><rect width="74.10634002437672" height="74.10634002437672" x="7.3955410614958454" y="2.6645352591003757e-15" fill="#49beb7" opacity="0.5" data-fill-palette-color="accent"></rect></g><g transform="matrix(1,0,0,1,10.565058659279778,18.797956710644257)"><svg viewBox="0 0 60.37176376731301 43.905967664584054" height="43.905967664584054" width="60.37176376731301"><g><svg version="1.1" xmlns="http://www.w3.org/2000/svg" xmlns:xlink="http://www.w3.org/1999/xlink" x="0" y="0" viewBox="0 0 100 72.72599792480469" enable-background="new 0 0 100 72.726" xml:space="preserve" width="60.37176376731301" height="43.905967664584054" class="icon-s-0" data-fill-palette-color="background" id="s-0"><path fill="#ffffff" d="M36.363 72.726C16.281 72.726 0 56.447 0 36.364 0 16.279 16.281 0 36.363 0c13.648 0 25.523 7.528 31.743 18.646 1.51-0.257 3.041-0.466 4.622-0.466C87.791 18.18 100 30.393 100 45.455c0 15.059-12.209 27.271-27.271 27.271C66.42 72.726 43.633 72.726 36.363 72.726zM72.729 63.634c10.042 0 18.184-8.143 18.184-18.18 0-10.041-8.142-18.183-18.184-18.183-3.639 0-7.006 1.093-9.852 2.935C60.08 18.123 49.3 9.09 36.363 9.09 21.303 9.09 9.092 21.3 9.092 36.364c0 15.062 12.211 27.271 27.271 27.271C44.585 63.634 65.864 63.634 72.729 63.634z" data-fill-palette-color="background"></path></svg></g></svg></g></svg></g></svg></g></svg></g><defs></defs></svg><rect width="395.52" height="66.41081217187461" fill="none" stroke="none" visibility="hidden"></rect></g></svg></g></svg>